<?xml version="1.0" encoding="UTF-8"?>
<!DOCTYPE svg PUBLIC "-//W3C//DTD SVG 1.1//EN" "http://www.w3.org/Graphics/SVG/1.1/DTD/svg11.dtd">
<svg xmlns="http://www.w3.org/2000/svg" version="1.1" width="128px" height="128px" style="shape-rendering:geometricPrecision; text-rendering:geometricPrecision; image-rendering:optimizeQuality; fill-rule:evenodd; clip-rule:evenodd" xmlns:xlink="http://www.w3.org/1999/xlink">
<g><path style="opacity:0.006" fill="#5f8ea1" d="M 35.5,15.5 C 35.8966,14.475 36.5632,14.3083 37.5,15C 36.9056,15.4643 36.2389,15.631 35.5,15.5 Z"/></g>
<g><path style="opacity:0.746" fill="#5e8da1" d="M 35.5,15.5 C 37.348,19.8536 38.0147,24.5203 37.5,29.5C 35.8333,29.5 34.1667,29.5 32.5,29.5C 32.3345,25.4862 32.5012,21.4862 33,17.5C 33.7083,16.6195 34.5416,15.9528 35.5,15.5 Z"/></g>
<g><path style="opacity:0.015" fill="#5e8a9d" d="M 40.5,22.5 C 39.5318,24.6074 39.1984,26.9407 39.5,29.5C 39.1667,29.5 38.8333,29.5 38.5,29.5C 38.3343,25.1539 38.501,20.8206 39,16.5C 39.3153,18.5856 39.8153,20.5856 40.5,22.5 Z"/></g>
<g><path style="opacity:0.526" fill="#5d8b9f" d="M 58.5,26.5 C 52.5,26.5 46.5,26.5 40.5,26.5C 40.5,25.1667 40.5,23.8333 40.5,22.5C 45.7516,21.7151 51.0849,21.2151 56.5,21C 51.5,20.6667 46.5,20.3333 41.5,20C 46.8333,19.3333 52.1667,19.3333 57.5,20C 57.9679,21.822 58.3012,23.9887 58.5,26.5 Z"/></g>
<g><path style="opacity:0.008" fill="#5f8ea1" d="M 80.5,19.5 C 81.8333,20.1667 81.8333,20.1667 80.5,19.5 Z"/></g>
<g><path style="opacity:0.776" fill="#5f8ea2" d="M 80.5,19.5 C 67.1667,19.8333 67.1667,20.1667 80.5,20.5C 81.1667,21.5 81.8333,22.5 82.5,23.5C 81.5655,24.5676 81.2322,25.901 81.5,27.5C 79.2646,27.2053 77.2646,27.5386 75.5,28.5C 75.5,28.8333 75.5,29.1667 75.5,29.5C 75.1667,29.5 74.8333,29.5 74.5,29.5C 74.1667,24.1667 73.8333,24.1667 73.5,29.5C 71.8333,29.5 70.1667,29.5 68.5,29.5C 68.4298,25.6316 68.7631,22.1316 69.5,19C 73.3575,18.1901 77.0242,18.3567 80.5,19.5 Z"/></g>
<g><path style="opacity:0.004" fill="#608ea1" d="M 83.5,22.5 C 84.8333,23.1667 84.8333,23.1667 83.5,22.5 Z"/></g>
<g><path style="opacity:0.004" fill="#5f8ea2" d="M 82.5,23.5 C 82.8333,23.5 83.1667,23.5 83.5,23.5C 83.1667,26.1667 82.8333,26.1667 82.5,23.5 Z"/></g>
<g><path style="opacity:0.98" fill="#c9cacb" d="M 32.5,29.5 C 34.1667,29.5 35.8333,29.5 37.5,29.5C 37.8333,29.5 38.1667,29.5 38.5,29.5C 38.8333,29.5 39.1667,29.5 39.5,29.5C 39.8333,29.5 40.1667,29.5 40.5,29.5C 46.5,29.5 52.5,29.5 58.5,29.5C 59.3138,27.369 59.8138,25.0356 60,22.5C 60.4935,24.1341 60.6602,25.8008 60.5,27.5C 62.5,27.5 64.5,27.5 66.5,27.5C 66.3379,25.4727 66.5045,23.4727 67,21.5C 67.1829,24.3647 67.6829,27.0314 68.5,29.5C 70.1667,29.5 71.8333,29.5 73.5,29.5C 73.8333,29.5 74.1667,29.5 74.5,29.5C 74.8333,29.5 75.1667,29.5 75.5,29.5C 86.1667,29.1667 86.1667,28.8333 75.5,28.5C 77.2646,27.5386 79.2646,27.2053 81.5,27.5C 82.5,27.5 83.5,27.5 84.5,27.5C 85.6142,34.3457 87.4475,41.0123 90,47.5C 91.5253,46.2799 93.3587,45.6132 95.5,45.5C 97.1667,45.6667 98.8333,45.8333 100.5,46C 97.5,46.3333 94.5,46.6667 91.5,47C 94.9194,47.2485 98.2527,47.7485 101.5,48.5C 102.703,52.1101 103.703,55.7768 104.5,59.5C 102.833,59.5 101.167,59.5 99.5,59.5C 98.8384,57.5295 98.1717,55.5295 97.5,53.5C 70.6698,52.8333 44.0031,52.1667 17.5,51.5C 17.2627,50.209 17.596,49.209 18.5,48.5C 40.5101,48.833 62.5101,48.4997 84.5,47.5C 82.9234,42.9337 81.2567,38.4337 79.5,34C 60.4731,34.1567 41.8064,33.3234 23.5,31.5C 23.5,30.1667 23.5,28.8333 23.5,27.5C 25.8333,27.5 28.1667,27.5 30.5,27.5C 30.335,24.1501 30.5017,20.8168 31,17.5C 31.1762,21.6877 31.6762,25.6877 32.5,29.5 Z"/></g>
<g><path style="opacity:0.998" fill="#394c5b" d="M 40.5,26.5 C 46.5,26.5 52.5,26.5 58.5,26.5C 58.5,27.5 58.5,28.5 58.5,29.5C 52.5,29.5 46.5,29.5 40.5,29.5C 40.5,28.5 40.5,27.5 40.5,26.5 Z"/></g>
<g><path style="opacity:0.983" fill="#e6e6e7" d="M 23.5,31.5 C 41.8064,33.3234 60.4731,34.1567 79.5,34C 81.2567,38.4337 82.9234,42.9337 84.5,47.5C 62.5101,48.4997 40.5101,48.833 18.5,48.5C 19.7212,42.5982 21.3879,36.9315 23.5,31.5 Z"/></g>
<g><path style="opacity:0.01" fill="#ebeceb" d="M 18.5,38.5 C 19.5735,39.2506 19.7401,40.2506 19,41.5C 18.5172,40.552 18.3505,39.552 18.5,38.5 Z"/></g>
<g><path style="opacity:1" fill="#394c5b" d="M 29.5,39.5 C 32.5,39.5 35.5,39.5 38.5,39.5C 38.5,40.5 38.5,41.5 38.5,42.5C 35.5,42.5 32.5,42.5 29.5,42.5C 29.5,41.5 29.5,40.5 29.5,39.5 Z"/></g>
<g><path style="opacity:1" fill="#3a4d5c" d="M 43.5,39.5 C 46.1667,39.5 48.8333,39.5 51.5,39.5C 51.5,40.5 51.5,41.5 51.5,42.5C 48.4281,42.8174 45.4281,42.4841 42.5,41.5C 42.8627,40.8165 43.1961,40.1499 43.5,39.5 Z"/></g>
<g><path style="opacity:1" fill="#384b5a" d="M 56.5,39.5 C 59.1873,39.3359 61.854,39.5026 64.5,40C 64.9574,40.414 65.2907,40.914 65.5,41.5C 62.5719,42.4841 59.5719,42.8174 56.5,42.5C 56.5,41.5 56.5,40.5 56.5,39.5 Z"/></g>
<g><path style="opacity:1" fill="#364958" d="M 69.5,39.5 C 72.5,39.5 75.5,39.5 78.5,39.5C 78.5,40.5 78.5,41.5 78.5,42.5C 75.5,42.5 72.5,42.5 69.5,42.5C 69.5,41.5 69.5,40.5 69.5,39.5 Z"/></g>
<g><path style="opacity:0.004" fill="#cecfce" d="M 102.5,48.5 C 101.833,47.1667 101.833,47.1667 102.5,48.5 Z"/></g>
<g><path style="opacity:0.012" fill="#cdcecd" d="M 102.5,48.5 C 103.833,49.1667 103.833,49.1667 102.5,48.5 Z"/></g>
<g><path style="opacity:0.016" fill="#cfcfcf" d="M 16.5,51.5 C 16.1667,51.5 15.8333,51.5 15.5,51.5C 15.8333,47.5 16.1667,47.5 16.5,51.5 Z"/></g>
<g><path style="opacity:0.984" fill="#e5e5e6" d="M 16.5,51.5 C 16.8333,51.5 17.1667,51.5 17.5,51.5C 44.0031,52.1667 70.6698,52.8333 97.5,53.5C 98.1717,55.5295 98.8384,57.5295 99.5,59.5C 94.8215,59.3342 90.1548,59.5008 85.5,60C 80.3907,62.889 75.0574,65.2223 69.5,67C 50.3289,67.8289 31.3289,67.6623 12.5,66.5C 12.5,66.1667 12.5,65.8333 12.5,65.5C 14.4078,61.0971 15.7411,56.4305 16.5,51.5 Z"/></g>
<g><path style="opacity:0.014" fill="#e8e8e8" d="M 15.5,51.5 C 15.6495,52.552 15.4828,53.552 15,54.5C 14.2599,53.2506 14.4265,52.2506 15.5,51.5 Z"/></g>
<g><path style="opacity:1" fill="#3a4c5c" d="M 24.5,58.5 C 27.5,58.5 30.5,58.5 33.5,58.5C 33.5,59.5 33.5,60.5 33.5,61.5C 30.5,61.5 27.5,61.5 24.5,61.5C 24.5,60.5 24.5,59.5 24.5,58.5 Z"/></g>
<g><path style="opacity:1" fill="#354858" d="M 37.5,58.5 C 40.5,58.5 43.5,58.5 46.5,58.5C 46.5,59.5 46.5,60.5 46.5,61.5C 43.5,61.5 40.5,61.5 37.5,61.5C 37.5,60.5 37.5,59.5 37.5,58.5 Z"/></g>
<g><path style="opacity:1" fill="#374a59" d="M 50.5,58.5 C 53.5,58.5 56.5,58.5 59.5,58.5C 59.5,59.5 59.5,60.5 59.5,61.5C 56.5,61.5 53.5,61.5 50.5,61.5C 50.5,60.5 50.5,59.5 50.5,58.5 Z"/></g>
<g><path style="opacity:1" fill="#354858" d="M 63.5,58.5 C 66.5,58.5 69.5,58.5 72.5,58.5C 72.5,59.5 72.5,60.5 72.5,61.5C 69.5,61.5 66.5,61.5 63.5,61.5C 63.5,60.5 63.5,59.5 63.5,58.5 Z"/></g>
<g><path style="opacity:0.949" fill="#1a3744" d="M 120.5,66.5 C 119.662,66.8417 119.328,67.5084 119.5,68.5C 118.662,68.8417 118.328,69.5084 118.5,70.5C 117.508,70.6716 116.842,70.3382 116.5,69.5C 116.822,67.2776 116.155,65.4443 114.5,64C 104.833,63.3333 95.1667,63.3333 85.5,64C 80.6203,66.6067 75.6203,68.94 70.5,71C 49.1693,71.5 27.8359,71.6666 6.5,71.5C 6.16667,71.5 5.83333,71.5 5.5,71.5C 5.85883,69.629 6.85883,68.129 8.5,67C 8.16667,66.6667 7.83333,66.3333 7.5,66C 8.56341,64.8118 9.89674,64.3118 11.5,64.5C 12.0447,60.8284 12.3781,61.1617 12.5,65.5C 11.1667,65.8333 11.1667,66.1667 12.5,66.5C 31.3289,67.6623 50.3289,67.8289 69.5,67C 75.0574,65.2223 80.3907,62.889 85.5,60C 90.1548,59.5008 94.8215,59.3342 99.5,59.5C 101.167,59.5 102.833,59.5 104.5,59.5C 105.268,58.7375 105.768,57.7375 106,56.5C 110.414,57.3029 114.914,57.8029 119.5,58C 119.955,60.5503 120.289,63.3837 120.5,66.5 Z"/></g>
<g><path style="opacity:1" fill="#3a4d5c" d="M 116.5,69.5 C 112.546,77.4081 108.546,85.4081 104.5,93.5C 96.855,94.6648 89.1883,94.8315 81.5,94C 71.2273,91.7325 60.894,89.8992 50.5,88.5C 49.7095,87.5987 48.7095,86.9321 47.5,86.5C 51.109,82.9284 51.4423,78.9284 48.5,74.5C 48.3893,73.8826 48.056,73.3826 47.5,73C 33.6605,72.8311 19.9939,72.3311 6.5,71.5C 27.8359,71.6666 49.1693,71.5 70.5,71C 75.6203,68.94 80.6203,66.6067 85.5,64C 95.1667,63.3333 104.833,63.3333 114.5,64C 116.155,65.4443 116.822,67.2776 116.5,69.5 Z"/></g>
<g><path style="opacity:0.012" fill="#12323f" d="M 121.5,66.5 C 121.338,64.4727 121.505,62.4727 122,60.5C 122.789,62.7116 122.622,64.7116 121.5,66.5 Z"/></g>
<g><path style="opacity:0.012" fill="#12333f" d="M 120.5,66.5 C 120.833,66.5 121.167,66.5 121.5,66.5C 121.672,67.4916 121.338,68.1583 120.5,68.5C 120.5,67.8333 120.5,67.1667 120.5,66.5 Z"/></g>
<g><path style="opacity:1" fill="#73808a" d="M 91.5,69.5 C 92.1667,73.8333 92.8333,78.1667 93.5,82.5C 93.44,83.0431 93.1067,83.3764 92.5,83.5C 91.5067,78.8804 91.1734,74.2137 91.5,69.5 Z"/></g>
<g><path style="opacity:0.012" fill="#13313e" d="M 119.5,68.5 C 119.833,68.5 120.167,68.5 120.5,68.5C 120.737,69.791 120.404,70.791 119.5,71.5C 119.5,70.5 119.5,69.5 119.5,68.5 Z"/></g>
<g><path style="opacity:0.01" fill="#334857" d="M 3.5,69.5 C 4.61295,70.9464 4.77961,72.6131 4,74.5C 3.50649,72.8659 3.33982,71.1992 3.5,69.5 Z"/></g>
<g><path style="opacity:0.961" fill="#394c5b" d="M 5.5,71.5 C 5.83333,71.5 6.16667,71.5 6.5,71.5C 19.9939,72.3311 33.6605,72.8311 47.5,73C 48.056,73.3826 48.3893,73.8826 48.5,74.5C 40.8594,73.4686 37.8594,76.4686 39.5,83.5C 39.8333,84.5 40.5,85.1667 41.5,85.5C 43.2646,86.4614 45.2646,86.7947 47.5,86.5C 48.7095,86.9321 49.7095,87.5987 50.5,88.5C 42.4931,88.3336 34.4931,88.5003 26.5,89C 21.2402,90.3661 15.9069,91.1994 10.5,91.5C 10.5,90.8333 10.1667,90.5 9.5,90.5C 8.32511,84.1337 6.99178,77.8004 5.5,71.5 Z"/></g>
<g><path style="opacity:0.004" fill="#1a3845" d="M 118.5,71.5 C 118.833,71.5 119.167,71.5 119.5,71.5C 119.672,72.4916 119.338,73.1583 118.5,73.5C 118.5,72.8333 118.5,72.1667 118.5,71.5 Z"/></g>
<g><path style="opacity:0.004" fill="#193745" d="M 117.5,73.5 C 117.833,73.5 118.167,73.5 118.5,73.5C 118.672,74.4916 118.338,75.1583 117.5,75.5C 117.5,74.8333 117.5,74.1667 117.5,73.5 Z"/></g>
<g><path style="opacity:1" fill="#a0b9d5" d="M 48.5,74.5 C 51.4423,78.9284 51.109,82.9284 47.5,86.5C 45.2646,86.7947 43.2646,86.4614 41.5,85.5C 43.1667,85.5 44.8333,85.5 46.5,85.5C 47.1667,80.1667 44.8333,77.8333 39.5,78.5C 39.5,80.1667 39.5,81.8333 39.5,83.5C 37.8594,76.4686 40.8594,73.4686 48.5,74.5 Z"/></g>
<g><path style="opacity:0.004" fill="#183644" d="M 116.5,75.5 C 116.833,75.5 117.167,75.5 117.5,75.5C 117.672,76.4916 117.338,77.1583 116.5,77.5C 116.5,76.8333 116.5,76.1667 116.5,75.5 Z"/></g>
<g><path style="opacity:1" fill="#9eb7d2" d="M 26.5,85.5 C 28.1667,85.5 29.8333,85.5 31.5,85.5C 32.1667,80.1667 29.8333,77.8333 24.5,78.5C 24.5,80.1667 24.5,81.8333 24.5,83.5C 22.5191,75.9836 25.5191,73.1503 33.5,75C 35.5037,77.8408 36.0037,81.0074 35,84.5C 32.226,86.5523 29.3927,86.8856 26.5,85.5 Z"/></g>
<g><path style="opacity:1" fill="#a2bbd7" d="M 56.5,85.5 C 58.1667,85.5 59.8333,85.5 61.5,85.5C 62.1667,80.1667 59.8333,77.8333 54.5,78.5C 54.5106,76.9826 55.1772,75.8159 56.5,75C 64.5075,73.3451 67.3409,76.5117 65,84.5C 62.3025,86.673 59.4692,87.0063 56.5,85.5 Z"/></g>
<g><path style="opacity:1" fill="#8d979f" d="M 88.5,69.5 C 88.8266,74.2137 88.4933,78.8804 87.5,83.5C 86.8933,83.3764 86.56,83.0431 86.5,82.5C 87.1667,78.1667 87.8333,73.8333 88.5,69.5 Z"/></g>
<g><path style="opacity:0.008" fill="#173642" d="M 115.5,77.5 C 115.833,77.5 116.167,77.5 116.5,77.5C 116.672,78.4916 116.338,79.1583 115.5,79.5C 115.5,78.8333 115.5,78.1667 115.5,77.5 Z"/></g>
<g><path style="opacity:1" fill="#c8dae5" d="M 26.5,85.5 C 25.5,85.1667 24.8333,84.5 24.5,83.5C 24.5,81.8333 24.5,80.1667 24.5,78.5C 29.8333,77.8333 32.1667,80.1667 31.5,85.5C 29.8333,85.5 28.1667,85.5 26.5,85.5 Z"/></g>
<g><path style="opacity:1" fill="#c8dae5" d="M 41.5,85.5 C 40.5,85.1667 39.8333,84.5 39.5,83.5C 39.5,81.8333 39.5,80.1667 39.5,78.5C 44.8333,77.8333 47.1667,80.1667 46.5,85.5C 44.8333,85.5 43.1667,85.5 41.5,85.5 Z"/></g>
<g><path style="opacity:1" fill="#c8dae5" d="M 54.5,78.5 C 59.8333,77.8333 62.1667,80.1667 61.5,85.5C 59.8333,85.5 58.1667,85.5 56.5,85.5C 55.8826,85.3893 55.3826,85.056 55,84.5C 54.5045,82.5273 54.3379,80.5273 54.5,78.5 Z"/></g>
<g><path style="opacity:0.008" fill="#153442" d="M 114.5,79.5 C 114.833,79.5 115.167,79.5 115.5,79.5C 115.672,80.4916 115.338,81.1583 114.5,81.5C 114.5,80.8333 114.5,80.1667 114.5,79.5 Z"/></g>
<g><path style="opacity:1" fill="#e8e9e9" d="M 91.5,69.5 C 91.1734,74.2137 91.5067,78.8804 92.5,83.5C 93.1067,83.3764 93.44,83.0431 93.5,82.5C 94.3909,81.7387 95.0576,80.7387 95.5,79.5C 94.1468,78.4763 93.4802,77.143 93.5,75.5C 98.1225,74.4082 99.9558,76.0748 99,80.5C 96.1849,86.1691 91.6849,88.0024 85.5,86C 81.5823,83.5235 80.2489,80.1901 81.5,76C 83.1341,75.5065 84.8008,75.3398 86.5,75.5C 86.5198,77.143 85.8532,78.4763 84.5,79.5C 84.9424,80.7387 85.6091,81.7387 86.5,82.5C 86.56,83.0431 86.8933,83.3764 87.5,83.5C 88.4933,78.8804 88.8266,74.2137 88.5,69.5C 89.5,68.1667 90.5,68.1667 91.5,69.5 Z"/></g>
<g><path style="opacity:0.012" fill="#133340" d="M 113.5,81.5 C 113.833,81.5 114.167,81.5 114.5,81.5C 114.672,82.4916 114.338,83.1583 113.5,83.5C 113.5,82.8333 113.5,82.1667 113.5,81.5 Z"/></g>
<g><path style="opacity:0.012" fill="#13323f" d="M 112.5,83.5 C 112.833,83.5 113.167,83.5 113.5,83.5C 113.737,84.791 113.404,85.791 112.5,86.5C 112.5,85.5 112.5,84.5 112.5,83.5 Z"/></g>
<g><path style="opacity:0.004" fill="#1b3845" d="M 111.5,86.5 C 111.833,86.5 112.167,86.5 112.5,86.5C 112.672,87.4916 112.338,88.1583 111.5,88.5C 111.5,87.8333 111.5,87.1667 111.5,86.5 Z"/></g>
<g><path style="opacity:1" fill="#173644" d="M 116.5,69.5 C 116.842,70.3382 117.508,70.6716 118.5,70.5C 118.5,70.8333 118.5,71.1667 118.5,71.5C 117.662,71.8417 117.328,72.5084 117.5,73.5C 116.662,73.8417 116.328,74.5084 116.5,75.5C 115.662,75.8417 115.328,76.5084 115.5,77.5C 114.662,77.8417 114.328,78.5084 114.5,79.5C 113.662,79.8417 113.328,80.5084 113.5,81.5C 112.662,81.8417 112.328,82.5084 112.5,83.5C 111.596,84.209 111.263,85.209 111.5,86.5C 110.662,86.8417 110.328,87.5084 110.5,88.5C 109.662,88.8417 109.328,89.5084 109.5,90.5C 108.662,90.8417 108.328,91.5084 108.5,92.5C 107.662,92.8417 107.328,93.5084 107.5,94.5C 106.662,94.8417 106.328,95.5084 106.5,96.5C 105.662,96.8417 105.328,97.5084 105.5,98.5C 89.9235,99.4306 74.5901,97.9306 59.5,94C 43.3975,91.6909 27.3975,92.1909 11.5,95.5C 11.5,94.8333 11.1667,94.5 10.5,94.5C 10.5,93.5 10.5,92.5 10.5,91.5C 15.9069,91.1994 21.2402,90.3661 26.5,89C 34.4931,88.5003 42.4931,88.3336 50.5,88.5C 60.894,89.8992 71.2273,91.7325 81.5,94C 89.1883,94.8315 96.855,94.6648 104.5,93.5C 108.546,85.4081 112.546,77.4081 116.5,69.5 Z"/></g>
<g><path style="opacity:0.004" fill="#193845" d="M 110.5,88.5 C 110.833,88.5 111.167,88.5 111.5,88.5C 111.672,89.4916 111.338,90.1583 110.5,90.5C 110.5,89.8333 110.5,89.1667 110.5,88.5 Z"/></g>
<g><path style="opacity:0.004" fill="#183744" d="M 109.5,90.5 C 109.833,90.5 110.167,90.5 110.5,90.5C 110.672,91.4916 110.338,92.1583 109.5,92.5C 109.5,91.8333 109.5,91.1667 109.5,90.5 Z"/></g>
<g><path style="opacity:0.008" fill="#173543" d="M 108.5,92.5 C 108.833,92.5 109.167,92.5 109.5,92.5C 109.672,93.4916 109.338,94.1583 108.5,94.5C 108.5,93.8333 108.5,93.1667 108.5,92.5 Z"/></g>
<g><path style="opacity:0.016" fill="#3b6d87" d="M 9.5,90.5 C 9.23219,92.099 9.56552,93.4324 10.5,94.5C 10.5,94.8333 10.5,95.1667 10.5,95.5C 10.5,96.1667 10.1667,96.5 9.5,96.5C 8.79105,95.596 7.79105,95.2627 6.5,95.5C 7.76712,93.9611 8.76712,92.2944 9.5,90.5 Z"/></g>
<g><path style="opacity:0.012" fill="#70c2ef" d="M 2.5,97.5 C 3.57346,98.2506 3.74012,99.2506 3,100.5C 2.51722,99.552 2.35055,98.552 2.5,97.5 Z"/></g>
<g><path style="opacity:0.012" fill="#70c2ef" d="M 123.5,97.5 C 124.573,98.2506 124.74,99.2506 124,100.5C 123.517,99.552 123.351,98.552 123.5,97.5 Z"/></g>
<g><path style="opacity:0.763" fill="#6ebfec" d="M 105.5,98.5 C 106.338,98.1583 106.672,97.4916 106.5,96.5C 107.338,96.1583 107.672,95.4916 107.5,94.5C 107.833,94.5 108.167,94.5 108.5,94.5C 113.119,95.5951 117.786,96.0951 122.5,96C 122.626,98.2342 122.293,100.568 121.5,103C 106.861,102.335 106.861,103.002 121.5,105C 122.337,106.011 122.67,107.178 122.5,108.5C 121.167,108.833 121.167,109.167 122.5,109.5C 122.389,110.117 122.056,110.617 121.5,111C 119.527,111.495 117.527,111.662 115.5,111.5C 104.328,111.771 92.9949,111.438 81.5,110.5C 64.6205,105.527 47.2872,103.694 29.5,105C 26.9644,105.186 24.631,105.686 22.5,106.5C 20.5853,106.216 18.9187,106.549 17.5,107.5C 15.901,107.232 14.5676,107.566 13.5,108.5C 9.1074,108.457 8.77406,108.957 12.5,110C 5.6405,113.1 3.30717,111.433 5.5,105C 8.0037,104.302 10.337,103.469 12.5,102.5C 17.6935,102.411 17.6935,101.745 12.5,100.5C 11.5836,100.543 10.9169,100.876 10.5,101.5C 8.5328,101.261 6.69946,101.594 5,102.5C 4.79225,100.141 4.62558,97.9743 4.5,96C 5.09442,95.5357 5.76109,95.369 6.5,95.5C 7.20895,96.404 8.20895,96.7373 9.5,96.5C 10.1667,96.5 10.5,96.1667 10.5,95.5C 10.8333,95.5 11.1667,95.5 11.5,95.5C 27.3975,92.1909 43.3975,91.6909 59.5,94C 74.5901,97.9306 89.9235,99.4306 105.5,98.5 Z M 22.5,100.5 C 20.2279,101.764 17.8945,101.598 15.5,100C 17.8473,99.6664 20.1806,99.833 22.5,100.5 Z M 57.5,98.5 C 63.9105,98.6818 63.7439,99.3485 57,100.5C 56.1667,100.333 55.3333,100.167 54.5,100C 55.7375,99.7679 56.7375,99.2679 57.5,98.5 Z M 22.5,100.5 C 22.0825,99.7784 21.4158,99.2784 20.5,99C 23.2071,98.6717 25.8738,99.005 28.5,100C 26.5273,100.495 24.5273,100.662 22.5,100.5 Z M 57.5,98.5 C 46.7998,99.9984 36.1331,99.8317 25.5,98C 36.3342,98.4781 47.0008,98.6448 57.5,98.5 Z M 65.5,101.5 C 58.943,101.451 58.943,100.784 65.5,99.5C 66.1667,99.6667 66.8333,99.8333 67.5,100C 66.5842,100.278 65.9175,100.778 65.5,101.5 Z M 10.5,101.5 C 10.9169,100.876 11.5836,100.543 12.5,100.5C 17.6935,101.745 17.6935,102.411 12.5,102.5C 12.1583,101.662 11.4916,101.328 10.5,101.5 Z M 70.5,102.5 C 68.5853,102.784 66.9187,102.451 65.5,101.5C 67.8194,100.833 70.1527,100.666 72.5,101C 71.5842,101.278 70.9175,101.778 70.5,102.5 Z M 70.5,102.5 C 73.1411,101.737 75.8078,101.57 78.5,102C 75.7346,103.476 73.0679,103.643 70.5,102.5 Z M 79.5,102.5 C 88.5964,102.609 88.4298,103.276 79,104.5C 78.1667,104.333 77.3333,104.167 76.5,104C 77.7375,103.768 78.7375,103.268 79.5,102.5 Z M 87.5,103.5 C 96.5517,103.193 105.552,103.693 114.5,105C 105.655,104.647 96.8214,104.813 88,105.5C 86.1667,105.333 84.3333,105.167 82.5,105C 84.3817,104.802 86.0484,104.302 87.5,103.5 Z"/></g>
<g><path style="opacity:0.012" fill="#70c2ef" d="M 123.5,108.5 C 123.351,107.448 123.517,106.448 124,105.5C 124.74,106.749 124.573,107.749 123.5,108.5 Z"/></g>
<g><path style="opacity:0.011" fill="#70c2ef" d="M 22.5,107.5 C 22.5,107.167 22.5,106.833 22.5,106.5C 31.8333,106.833 31.8333,107.167 22.5,107.5 Z"/></g>
<g><path style="opacity:0.011" fill="#70c2ef" d="M 17.5,108.5 C 17.5,108.167 17.5,107.833 17.5,107.5C 19.1667,107.5 20.8333,107.5 22.5,107.5C 21.0813,108.451 19.4147,108.784 17.5,108.5 Z"/></g>
<g><path style="opacity:0.011" fill="#70c2ef" d="M 13.5,108.5 C 14.8333,108.5 16.1667,108.5 17.5,108.5C 16.1667,109.833 14.8333,109.833 13.5,108.5 Z"/></g>
<g><path style="opacity:0.004" fill="#70c2ef" d="M 122.5,108.5 C 122.833,108.5 123.167,108.5 123.5,108.5C 123.315,109.17 122.981,109.17 122.5,108.5 Z"/></g>
<g><path style="opacity:0.01" fill="#70c2ef" d="M 81.5,110.5 C 81.5,110.833 81.5,111.167 81.5,111.5C 73.5,111.167 73.5,110.833 81.5,110.5 Z"/></g>
<g><path style="opacity:0.011" fill="#70c1ef" d="M 81.5,111.5 C 85.5138,111.334 89.5138,111.501 93.5,112C 89.3112,112.812 85.3112,112.645 81.5,111.5 Z"/></g>
<g><path style="opacity:0.011" fill="#6fc1ef" d="M 115.5,111.5 C 111.354,112.647 107.02,112.814 102.5,112C 106.821,111.501 111.154,111.334 115.5,111.5 Z"/></g>
<g><path style="opacity:0.004" fill="#70c1ee" d="M 94.5,113.5 C 96.6282,112.371 98.9615,112.204 101.5,113C 99.1902,113.497 96.8568,113.663 94.5,113.5 Z"/></g>
</svg>
